<svg xmlns="http://www.w3.org/2000/svg" xmlns:xlink="http://www.w3.org/1999/xlink" viewBox="0 0 64 64" version="1.0"><defs><linearGradient id="a"><stop stop-color="red" offset="0"/><stop stop-color="#590000" offset="1"/></linearGradient><linearGradient gradientTransform="translate(-.5)" gradientUnits="userSpaceOnUse" xlink:href="#a" id="c" y2="59" x2="15.043" y1="19.054" x1="14.86"/><linearGradient gradientTransform="translate(-.5)" gradientUnits="userSpaceOnUse" xlink:href="#a" id="d" y2="59" x2="15.043" y1="19.054" x1="14.86"/><linearGradient gradientTransform="translate(-.5)" gradientUnits="userSpaceOnUse" xlink:href="#a" id="b" y2="0" x2="32" y1="64.091" x1="32"/></defs><path fill="url(#b)" d="M34.039 32.09l-2 31.91-2-32 2-32z"/><path fill="url(#c)" d="M27.56 59l-2.448-24.963s-23.484-2.819-23.61-8.972c-.086-4.048 4.94-5.97 7.693-5.97 2.306 0-5.487.048-5.524 5.192-.03 4.393 25.189 6.06 25.189 6.06z"/><path fill="url(#d)" d="M36.44 59l2.448-24.963s23.484-2.819 23.61-8.972c.086-4.048-4.94-5.97-7.693-5.97-2.306 0 5.487.048 5.524 5.192.03 4.393-25.189 6.06-25.189 6.06z"/></svg>